<?xml version="1.0" encoding="UTF-8"?>
<svg xmlns="http://www.w3.org/2000/svg" width="50" height="50" viewBox="0 0 25 50" fill="none">
  <path fill-rule="evenodd" clip-rule="evenodd" d="M0.160004 0.119987C7.56 -0.610013 14.82 1.98999 20.07 7.23999C29.71 16.88 29.71 32.56 20.07 42.2C14.82 47.45 7.56 50.05 0.160004 49.32C0.0700037 49.31 0 49.23 0 49.14C0 49.05 0.0700037 48.97 0.160004 48.96C5.75 48.41 11.02 45.92 14.99 41.94C19.59 37.34 22.13 31.22 22.13 24.71C22.13 18.2 19.59 12.08 14.99 7.47999C11.02 3.49999 5.75 1.00999 0.160004 0.459987C0.0700037 0.469987 0 0.389987 0 0.299987C0 0.209987 0.0700037 0.129987 0.160004 0.119987Z" fill="white"></path>
</svg>
